<svg xmlns="http://www.w3.org/2000/svg" xmlns:xlink="http://www.w3.org/1999/xlink" width="24" height="24" viewBox="0 0 24 24">
  <defs>
    <clipPath id="clip-path">
      <rect id="Rectangle_46" data-name="Rectangle 46" width="24" height="24" transform="translate(136 770)" fill="#7a4444"/>
    </clipPath>
  </defs>
  <g id="Mask_Group_10" data-name="Mask Group 10" transform="translate(-136 -770)" opacity="0.6" clip-path="url(#clip-path)">
    <path id="heart" d="M12,21.352A1.407,1.407,0,0,1,11.072,21c-.97-.848-1.9-1.644-2.729-2.347l0,0A50.753,50.753,0,0,1,2.38,13.06,8.933,8.933,0,0,1,0,7.213,7.5,7.5,0,0,1,1.9,2.09,6.454,6.454,0,0,1,6.7,0a6.037,6.037,0,0,1,3.771,1.3A7.715,7.715,0,0,1,12,2.894,7.716,7.716,0,0,1,13.525,1.3,6.037,6.037,0,0,1,17.3,0a6.454,6.454,0,0,1,4.8,2.09A7.5,7.5,0,0,1,24,7.213a8.932,8.932,0,0,1-2.38,5.847,50.748,50.748,0,0,1-5.958,5.593c-.826.7-1.762,1.5-2.734,2.352a1.408,1.408,0,0,1-.928.348ZM6.7,1.406A5.063,5.063,0,0,0,2.937,3.043a6.1,6.1,0,0,0-1.532,4.17,7.516,7.516,0,0,0,2.057,4.95,49.945,49.945,0,0,0,5.788,5.42l0,0c.828.706,1.766,1.505,2.743,2.359.983-.856,1.922-1.657,2.752-2.363a49.957,49.957,0,0,0,5.788-5.42,7.517,7.517,0,0,0,2.057-4.95,6.1,6.1,0,0,0-1.532-4.17A5.063,5.063,0,0,0,17.3,1.406a4.663,4.663,0,0,0-2.911,1.008,6.822,6.822,0,0,0-1.622,1.877.887.887,0,0,1-1.525,0A6.816,6.816,0,0,0,9.615,2.414,4.663,4.663,0,0,0,6.7,1.406Zm0,0" transform="translate(136 771.324)"/>
  </g>
</svg>
