<svg xmlns="http://www.w3.org/2000/svg" width="20.023" height="24" viewBox="0 0 20.023 24">
  <g id="User" transform="translate(0)">
    <path id="Path_6" data-name="Path 6" d="M9.86,11.561a5.593,5.593,0,0,0,4.087-1.694A5.594,5.594,0,0,0,15.641,5.78a5.594,5.594,0,0,0-1.694-4.087A5.594,5.594,0,0,0,9.86,0,5.593,5.593,0,0,0,5.773,1.693,5.593,5.593,0,0,0,4.08,5.78,5.594,5.594,0,0,0,5.773,9.868,5.6,5.6,0,0,0,9.86,11.561ZM6.768,2.688A4.178,4.178,0,0,1,9.86,1.406a4.179,4.179,0,0,1,3.093,1.281A4.179,4.179,0,0,1,14.234,5.78a4.179,4.179,0,0,1-1.282,3.093A4.179,4.179,0,0,1,9.86,10.154,4.179,4.179,0,0,1,6.768,8.873,4.178,4.178,0,0,1,5.486,5.78,4.179,4.179,0,0,1,6.768,2.688Zm0,0"/>
    <path id="Path_7" data-name="Path 7" d="M19.975,18.455a14.278,14.278,0,0,0-.194-1.516,11.948,11.948,0,0,0-.373-1.525,7.532,7.532,0,0,0-.627-1.422,5.36,5.36,0,0,0-.945-1.232,4.167,4.167,0,0,0-1.358-.853,4.692,4.692,0,0,0-1.733-.314,1.759,1.759,0,0,0-.94.4c-.282.184-.611.4-.979.631a5.608,5.608,0,0,1-1.266.558,4.917,4.917,0,0,1-3.1,0A5.591,5.591,0,0,1,7.2,12.623c-.364-.233-.694-.445-.98-.631a1.757,1.757,0,0,0-.939-.4,4.686,4.686,0,0,0-1.733.314,4.164,4.164,0,0,0-1.358.853,5.362,5.362,0,0,0-.945,1.232,7.546,7.546,0,0,0-.627,1.422,11.976,11.976,0,0,0-.373,1.525,14.181,14.181,0,0,0-.194,1.517C.016,18.914,0,19.391,0,19.873a3.985,3.985,0,0,0,1.184,3.015A4.26,4.26,0,0,0,4.234,24H15.79a4.261,4.261,0,0,0,3.05-1.112,3.984,3.984,0,0,0,1.184-3.015c0-.484-.016-.961-.049-1.418Zm-2.1,3.414a2.869,2.869,0,0,1-2.08.725H4.234a2.869,2.869,0,0,1-2.08-.725,2.6,2.6,0,0,1-.747-2c0-.45.015-.894.044-1.32a12.79,12.79,0,0,1,.176-1.366,10.563,10.563,0,0,1,.328-1.344,6.143,6.143,0,0,1,.51-1.156,3.974,3.974,0,0,1,.695-.91,2.764,2.764,0,0,1,.9-.562A3.236,3.236,0,0,1,5.17,13c.049.026.137.076.279.169.289.188.622.4.991.639a6.968,6.968,0,0,0,1.59.71,6.323,6.323,0,0,0,3.963,0,6.976,6.976,0,0,0,1.59-.711c.377-.241.7-.45.99-.638.142-.092.23-.143.279-.169a3.239,3.239,0,0,1,1.108.214,2.768,2.768,0,0,1,.9.562,3.963,3.963,0,0,1,.695.91,6.123,6.123,0,0,1,.51,1.156,10.538,10.538,0,0,1,.328,1.344,12.9,12.9,0,0,1,.176,1.366h0c.03.425.045.868.045,1.319a2.6,2.6,0,0,1-.747,2Zm0,0"/>
  </g>
</svg>
