<svg xmlns="http://www.w3.org/2000/svg" width="24" height="22.499" viewBox="0 0 24 22.499">
  <g id="home_2_" data-name="home (2)" transform="translate(0 -0.751)">
    <path id="Path_5" data-name="Path 5" d="M23.78,11.093,14.453,1.765a3.473,3.473,0,0,0-4.906,0L.22,11.093a.75.75,0,0,0,1.06,1.061l.595-.595v9.534a2.156,2.156,0,0,0,2.156,2.156h3.75a.469.469,0,0,0,.469-.469V15.843A2.344,2.344,0,0,1,10.594,13.5h2.813a2.344,2.344,0,0,1,2.344,2.344v6.938a.469.469,0,0,0,.469.469h3.75a2.156,2.156,0,0,0,2.156-2.156V11.559l.595.595a.75.75,0,0,0,1.06-1.061Z" fill="#947d5e"/>
  </g>
</svg>
